<?xml version="1.0" encoding="utf-8"?>
<!-- Generator: Adobe Illustrator 22.0.1, SVG Export Plug-In . SVG Version: 6.00 Build 0)  -->
<svg version="1.1" id="Camada_1" xmlns="http://www.w3.org/2000/svg" xmlns:xlink="http://www.w3.org/1999/xlink" x="0px" y="0px"
	 viewBox="0 0 325.6 77.4" style="enable-background:new 0 0 325.6 77.4;" xml:space="preserve">
<style type="text/css">
	.st0{fill:#00B290;}
	.st1{fill:url(#SVGID_1_);}
	.st2{fill:#007668;}
</style>
<title>Ativo 1</title>
<g>
	<path class="st0" d="M4.2,56.1V21.7c0-11.6,7.6-18.8,18.9-18.8c11.5,0,19.1,7.3,19.1,18.8v1.2c0,0.7-0.5,1.3-1.2,1.3l-9.4,0.4
		c-0.7,0-1.2-0.4-1.2-1.2v-2.5c0-4.7-2.9-8-7.4-8c-4.3,0-7.3,3.2-7.3,8V57c0,4.7,2.9,8,7.3,8c4.4,0,7.4-3.2,7.4-8v-2.5
		c0-0.7,0.5-1.2,1.2-1.2l9.4,0.4c0.7,0,1.2,0.5,1.2,1.2v1.2c0,11.5-7.7,18.9-19.1,18.9C11.8,75,4.2,67.5,4.2,56.1z"/>
	<path class="st0" d="M79.4,73.1l-1.9-10.6c0-0.3-0.3-0.5-0.6-0.5H62.2c-0.3,0-0.6,0.1-0.6,0.4l-2,10.7c-0.1,0.8-0.6,1.1-1.3,1.1H49
		c-0.8,0-1.2-0.4-1-1.3L62.8,4.8c0.1-0.7,0.6-1.1,1.3-1.1h10.8c0.7,0,1.2,0.4,1.3,1.1l14.9,68.1c0.2,0.9-0.3,1.3-1.1,1.3h-9.4
		C80,74.2,79.5,73.9,79.4,73.1z M64.2,52.8h11c0.3,0,0.6-0.1,0.5-0.5l-5.5-30.4c-0.1-0.4-0.5-0.4-0.6,0l-5.8,30.4
		C63.5,52.7,63.8,52.8,64.2,52.8z"/>
	<path class="st0" d="M99.4,73V4.9c0-0.7,0.5-1.2,1.2-1.2h17.2c11.6,0,19,7.6,19,19.2v32c0,11.7-7.5,19.2-19,19.2h-17.2
		C99.9,74.2,99.4,73.7,99.4,73z M111.6,64.1l6-0.1c4.4,0,7.5-3.8,7.6-9.8V23.6c0-6-2.9-9.9-7.7-9.9h-5.9c-0.3,0-0.5,0.2-0.5,0.5
		v49.4C111.1,63.9,111.3,64.1,111.6,64.1z"/>
	<linearGradient id="SVGID_1_" gradientUnits="userSpaceOnUse" x1="146.5379" y1="38.9419" x2="181.6894" y2="38.9419">
		<stop  offset="0" style="stop-color:#00B290"/>
		<stop  offset="1" style="stop-color:#007668"/>
	</linearGradient>
	<path class="st1" d="M180.5,13.8h-21.8c-0.3,0-0.5,0.2-0.5,0.5v19c0,0.3,0.2,0.5,0.5,0.5h12.9c0.7,0,1.2,0.5,1.2,1.2v7.8
		c0,0.7-0.5,1.2-1.2,1.2h-12.9c-0.3,0-0.5,0.2-0.5,0.5v19.1c0,0.3,0.2,0.5,0.5,0.5h21.8c0.7,0,1.2,0.5,1.2,1.2V73
		c0,0.7-0.5,1.2-1.2,1.2h-32.7c-0.7,0-1.2-0.5-1.2-1.2V4.9c0-0.7,0.5-1.2,1.2-1.2h32.7c0.7,0,1.2,0.5,1.2,1.2v7.7
		C181.7,13.3,181.2,13.8,180.5,13.8z"/>
	<path class="st2" d="M190.5,73V4.9c0-0.7,0.5-1.2,1.2-1.2h9.7c0.7,0,1.2,0.3,1.4,0.9l15.6,41c0.2,0.4,0.6,0.4,0.6-0.1V4.9
		c0-0.7,0.5-1.2,1.2-1.2h9.2c0.7,0,1.2,0.5,1.2,1.2V73c0,0.7-0.5,1.2-1.2,1.2h-9.8c-0.7,0-1.2-0.3-1.4-0.9l-15.7-41.1
		c-0.2-0.4-0.6-0.3-0.6,0.1l0.1,40.7c0,0.7-0.5,1.2-1.2,1.2h-9.1C191,74.2,190.5,73.7,190.5,73z"/>
	<path class="st2" d="M240.2,56.1V21.7c0-11.6,7.6-18.8,18.9-18.8c11.5,0,19.1,7.3,19.1,18.8v1.2c0,0.7-0.5,1.3-1.2,1.3l-9.4,0.4
		c-0.7,0-1.2-0.4-1.2-1.2v-2.5c0-4.7-2.9-8-7.4-8c-4.3,0-7.3,3.2-7.3,8V57c0,4.7,2.9,8,7.3,8c4.4,0,7.4-3.2,7.4-8v-2.5
		c0-0.7,0.5-1.2,1.2-1.2l9.4,0.4c0.7,0,1.2,0.5,1.2,1.2v1.2c0,11.5-7.7,18.9-19.1,18.9C247.8,75,240.2,67.5,240.2,56.1z"/>
	<path class="st2" d="M321.4,13.8h-21.8c-0.3,0-0.5,0.2-0.5,0.5v19c0,0.3,0.2,0.5,0.5,0.5h12.9c0.7,0,1.2,0.5,1.2,1.2v7.8
		c0,0.7-0.5,1.2-1.2,1.2h-12.9c-0.3,0-0.5,0.2-0.5,0.5v19.1c0,0.3,0.2,0.5,0.5,0.5h21.8c0.7,0,1.2,0.5,1.2,1.2V73
		c0,0.7-0.5,1.2-1.2,1.2h-32.7c-0.7,0-1.2-0.5-1.2-1.2V4.9c0-0.7,0.5-1.2,1.2-1.2h32.7c0.7,0,1.2,0.5,1.2,1.2v7.7
		C322.6,13.3,322.1,13.8,321.4,13.8z"/>
</g>
</svg>
