<?xml version="1.0" encoding="utf-8"?>
<!-- Generator: Adobe Illustrator 22.0.1, SVG Export Plug-In . SVG Version: 6.00 Build 0)  -->
<svg version="1.1" id="Camada_1" xmlns="http://www.w3.org/2000/svg" xmlns:xlink="http://www.w3.org/1999/xlink" x="0px" y="0px"
	 viewBox="0 0 295.1 118.9" style="enable-background:new 0 0 295.1 118.9;" xml:space="preserve">
<style type="text/css">
	.st0{fill:#FFFFFF;}
	.st1{fill:#00B290;}
	.st2{fill:url(#SVGID_1_);}
	.st3{fill:#007668;}
</style>
<g>
	<title>Ativo 1</title>
	<g>
		<g>
			<path class="st0" d="M120.5,118.8c-0.2,0-0.4,0-0.6,0c-6.8-0.1-12-2.7-12.2-5.9l-3.9-92.6L78.6,67.7C77,70.3,72,72,66.4,72
				l-51.6,0.1l0,0c-4.7,0-8.4-1.9-8.5-4.2c0-2.3,3.8-9.8,8.4-9.8L63.4,58L95.3,5.3c1.8-2.9,7.7-4.7,14.1-4.3
				c6.3,0.4,10.7,2.8,10.8,5.8l3,71.2l3.3-16.5c0.6-3.1,6-5.4,12.6-5.4H151l2.8-32.1c0.3-3.2,5.6-5.7,12.3-5.8c0.1,0,0.3,0,0.4,0
				c6.6,0,12,2.3,12.6,5.4l13.2,64.1l25-53.8c1.3-2.9,6.5-4.8,12.9-4.7c6.2,0.1,11.2,2.2,12.1,5.1l7.5,23.4l35.9-0.1l0,0
				c4.7,0,8.4,4.7,8.5,7c0,2.3-3.8,4.2-8.4,4.2l-39.4,0.1l0,0c-6.3,0-11.6-2.1-12.6-5.1L229,46.4L203.2,102
				c-1.4,2.9-6.9,4.9-13.3,4.7c-6.3-0.2-11.2-2.4-11.8-5.4l-9.9-48.1l-0.5,5.7c-0.3,3.2-5.9,5.7-12.7,5.8h-12.1l-9.8,48.7
				C132.5,116.5,127.1,118.8,120.5,118.8z M250.5,59.8L250.5,59.8L250.5,59.8z M66.4,58L66.4,58L66.4,58z"/>
		</g>
	</g>
	<g>
		<g>
			<path class="st1" d="M20,98.8c-11,0-18.3-7.3-18.3-18.2V49.2C1.7,38.2,8.9,31,20,31c11.2,0,18.4,7.1,18.4,18.2v1.1
				c0,1.2-0.9,2.2-2.1,2.2l-8.5,0.4c-1.3,0-2.1-0.9-2.1-2.1v-2.3c0-3.8-2.2-6.3-5.7-6.3c-3.4,0-5.6,2.5-5.6,6.3v32.9
				c0,3.8,2.2,6.3,5.6,6.3c3.5,0,5.7-2.5,5.7-6.3v-2.3c0-1.2,0.9-2.1,2.1-2.1l8.6,0.4c1.2,0,2.1,0.9,2.1,2.1v1.1
				C38.4,91.5,31,98.8,20,98.8z"/>
			<path class="st0" d="M20,32.1c10.5,0,17.4,6.6,17.4,17.2v1.1c0,0.6-0.5,1.2-1.1,1.2L27.8,52c-0.6,0-1.1-0.4-1.1-1.1v-2.3
				c0-4.3-2.7-7.3-6.7-7.3c-3.9,0-6.6,2.9-6.6,7.3v32.9c0,4.3,2.7,7.3,6.6,7.3c4,0,6.7-2.9,6.7-7.3v-2.3c0-0.6,0.5-1.1,1.1-1.1
				l8.5,0.4c0.6,0,1.1,0.5,1.1,1.1v1.1c0,10.5-7,17.3-17.4,17.3C9.6,97.8,2.7,91,2.7,80.6V49.2C2.7,38.7,9.6,32.1,20,32.1 M20,30.1
				c-11.5,0-19.3,7.7-19.3,19.2v31.3c0,11.5,7.7,19.3,19.3,19.3s19.4-7.7,19.4-19.3v-1.1c0-1.7-1.3-3.1-3-3.1L27.9,76l0,0l0,0
				c-1.7,0-3.1,1.4-3.1,3.1v2.3c0,3.2-1.8,5.3-4.7,5.3c-2.8,0-4.6-2-4.6-5.3V48.5c0-3.2,1.8-5.3,4.6-5.3c2.9,0,4.7,2,4.7,5.3v2.3
				c0,1.8,1.3,3.1,3.1,3.1l0,0l0,0l8.5-0.4c1.7,0,3-1.5,3-3.2v-1.1C39.4,37.8,31.6,30.1,20,30.1L20,30.1z"/>
		</g>
		<g>
			<path class="st1" d="M72.4,98.1c-1.2,0-2-0.7-2.2-1.9L68.5,87H55.9l-1.8,9.3c-0.1,1.1-1,1.8-2.2,1.8h-8.4c-0.9,0-1.3-0.4-1.6-0.7
				c-0.2-0.3-0.5-0.9-0.3-1.7l13.5-62.1c0.1-1,1-1.8,2.2-1.8h9.8c1.1,0,2,0.8,2.2,1.9l13.6,62c0.2,0.8-0.1,1.4-0.3,1.7
				c-0.3,0.3-0.8,0.7-1.7,0.7C80.9,98.1,72.4,98.1,72.4,98.1z M66.7,76.6l-4.2-23.2L58,76.6H66.7z"/>
			<path class="st0" d="M67.2,32.8c0.6,0,1.1,0.4,1.2,1L82,95.9c0.2,0.8-0.3,1.2-1,1.2h-8.5c-0.6,0-1.1-0.3-1.2-1l-1.7-9.6
				c0-0.3-0.3-0.5-0.6-0.5H55.6c-0.3,0-0.6,0.1-0.6,0.4l-1.8,9.7c-0.1,0.7-0.6,1-1.2,1h-8.4c-0.7,0-1.1-0.4-0.9-1.2l13.5-62.1
				c0.1-0.6,0.6-1,1.2-1L67.2,32.8 M57.3,77.6h10c0.3,0,0.6-0.1,0.5-0.5l-5.1-27.7c0-0.2-0.2-0.3-0.3-0.3s-0.2,0.1-0.3,0.3
				l-5.3,27.7C56.8,77.5,57.1,77.6,57.3,77.6 M67.2,30.8h-9.8c-1.6,0-2.9,1.1-3.2,2.6l-13.5,62c-0.3,1.3,0.1,2.1,0.5,2.6
				c0.3,0.4,1,1,2.4,1H52c1.7,0,2.9-1.1,3.2-2.7l1.6-8.4h10.9l1.5,8.4c0.2,1.6,1.5,2.7,3.2,2.7h8.5c1,0,1.9-0.4,2.4-1.1
				c0.3-0.4,0.8-1.3,0.5-2.6l-13.6-62C70.1,31.9,68.8,30.8,67.2,30.8L67.2,30.8z M59.2,75.6l3.2-16.8l3.1,16.8H59.2L59.2,75.6z"/>
		</g>
		<g>
			<path class="st1" d="M90.6,98.1c-1.2,0-2.1-0.9-2.1-2.1V33.9c0-1.2,0.9-2.1,2.1-2.1h15.7c11.2,0,18.4,7.3,18.4,18.5v29.2
				c0,11.3-7.2,18.5-18.4,18.5L90.6,98.1L90.6,98.1z M101.1,86.9l5-0.1c3.5,0,5.8-3.1,5.9-7.9V51c0-5-2.2-8-6-8h-4.9V86.9z"/>
			<path class="st0" d="M106.3,32.8c10.6,0,17.4,6.9,17.4,17.5v29.2c0,10.7-6.8,17.5-17.4,17.5H90.6c-0.6,0-1.1-0.5-1.1-1.1v-62
				c0-0.6,0.5-1.1,1.1-1.1L106.3,32.8 M100.6,87.9l5.5-0.1c4,0,6.8-3.5,6.9-8.9V51c0-5.5-2.7-9-7-9h-5.4c-0.3,0-0.5,0.2-0.5,0.5v45
				C100.1,87.7,100.3,87.9,100.6,87.9 M106.3,30.8H90.6c-1.7,0-3.1,1.4-3.1,3.1V96c0,1.7,1.4,3.1,3.1,3.1h15.7
				c11.6,0,19.4-7.9,19.4-19.5V50.3C125.7,38.7,117.9,30.8,106.3,30.8L106.3,30.8z M102.1,44h3.9c4.6,0,5,5.4,5,7v27.9
				c-0.1,3.3-1.4,6.9-4.9,6.9l-4,0.1V44L102.1,44z"/>
		</g>
		<g>
			
				<linearGradient id="SVGID_1_" gradientUnits="userSpaceOnUse" x1="131.5" y1="55" x2="165.5527" y2="55" gradientTransform="matrix(1 0 0 -1 0 120)">
				<stop  offset="0" style="stop-color:#00B290"/>
				<stop  offset="1" style="stop-color:#007668"/>
			</linearGradient>
			<path class="st2" d="M133.6,98.1c-1.2,0-2.1-0.9-2.1-2.1V33.9c0-1.2,0.9-2.1,2.1-2.1h29.8c1.2,0,2.1,0.9,2.1,2.1v7
				c0,1.2-0.9,2.1-2.1,2.1h-19.3v16.3h11.2c1.2,0,2.1,0.9,2.1,2.1v7.1c0,1.2-0.9,2.1-2.1,2.1h-11.2V87h19.3c1.2,0,2.1,0.9,2.1,2.1v7
				c0,1.2-0.9,2.1-2.1,2.1L133.6,98.1L133.6,98.1z"/>
			<path class="st0" d="M163.4,32.8c0.6,0,1.1,0.5,1.1,1.1v7c0,0.6-0.5,1.1-1.1,1.1h-19.8c-0.3,0-0.5,0.2-0.5,0.5v17.4
				c0,0.3,0.2,0.5,0.5,0.5h11.8c0.6,0,1.1,0.5,1.1,1.1v7.1c0,0.6-0.5,1.1-1.1,1.1h-11.8c-0.3,0-0.5,0.2-0.5,0.5v17.5
				c0,0.3,0.2,0.5,0.5,0.5h19.8c0.6,0,1.1,0.5,1.1,1.1v7c0,0.6-0.5,1.1-1.1,1.1h-29.8c-0.6,0-1.1-0.5-1.1-1.1V33.9
				c0-0.6,0.5-1.1,1.1-1.1L163.4,32.8 M163.4,30.8h-29.8c-1.7,0-3.1,1.4-3.1,3.1V96c0,1.7,1.4,3.1,3.1,3.1h29.8
				c1.7,0,3.1-1.4,3.1-3.1v-7c0-1.7-1.4-3.1-3.1-3.1h-18.3V71.5h10.2c1.7,0,3.1-1.4,3.1-3.1v-7.1c0-1.7-1.4-3.1-3.1-3.1h-10.2V44
				h18.3c1.7,0,3.1-1.4,3.1-3.1v-7C166.5,32.2,165.2,30.8,163.4,30.8L163.4,30.8z"/>
		</g>
		<g>
			<path class="st3" d="M199.1,98.1c-1.1,0-1.9-0.6-2.2-1.5L184,62.8l0,33.2c0,1.2-0.9,2.1-2.1,2.1h-8.3c-1.2,0-2.1-0.9-2.1-2.1
				V33.9c0-1.2,0.9-2.1,2.1-2.1h8.8c1.1,0,1.9,0.6,2.2,1.5L197.5,67V33.9c0-1.2,0.9-2.1,2.1-2.1h8.4c1.2,0,2.1,0.9,2.1,2.1V96
				c0,1.2-0.9,2.1-2.1,2.1H199.1z"/>
			<path class="st0" d="M208,32.8c0.6,0,1.1,0.5,1.1,1.1V96c0,0.6-0.5,1.1-1.1,1.1h-8.9c-0.6,0-1.1-0.3-1.3-0.8l-14.3-37.5
				c-0.1-0.2-0.2-0.2-0.3-0.2s-0.2,0.1-0.2,0.3V96c0,0.6-0.5,1.1-1.1,1.1h-8.3c-0.6,0-1.1-0.5-1.1-1.1V33.9c0-0.6,0.5-1.1,1.1-1.1
				h8.8c0.6,0,1.1,0.3,1.3,0.8L197.9,71c0.1,0.2,0.2,0.3,0.3,0.3s0.2-0.1,0.2-0.4v-37c0-0.6,0.5-1.1,1.1-1.1L208,32.8 M208,30.8
				h-8.4c-1.7,0-3.1,1.4-3.1,3.1v27.7L185.6,33c-0.5-1.3-1.7-2.1-3.2-2.1h-8.8c-1.7,0-3.1,1.4-3.1,3.1v62c0,1.7,1.4,3.1,3.1,3.1h8.3
				c1.7,0,3.1-1.4,3.1-3.1l-0.1-27.7l11,28.7c0.5,1.3,1.7,2.1,3.2,2.1h8.9c1.7,0,3.1-1.4,3.1-3.1V33.9
				C211.1,32.2,209.7,30.8,208,30.8L208,30.8z"/>
		</g>
		<g>
			<path class="st3" d="M235.1,98.8c-10.9,0-18.3-7.3-18.3-18.3V49.2c0-11,7.2-18.2,18.3-18.2c11.2,0,18.5,7.1,18.5,18.2v1.1
				c0,1.2-0.9,2.2-2.1,2.2l-8.5,0.4c-1.3,0-2.1-0.9-2.1-2.1v-2.3c0-3.8-2.2-6.3-5.7-6.3c-3.4,0-5.6,2.5-5.6,6.3v32.9
				c0,3.8,2.2,6.3,5.6,6.3c3.5,0,5.7-2.5,5.7-6.3v-2.3c0-1.2,0.9-2.1,2.1-2.1l8.6,0.4c1.2,0,2.1,0.9,2.1,2.1v1.1
				C253.6,91.5,246.2,98.8,235.1,98.8z"/>
			<path class="st0" d="M235.1,32.1c10.5,0,17.5,6.6,17.5,17.2v1.1c0,0.6-0.5,1.2-1.1,1.2L243,52c-0.6,0-1.1-0.4-1.1-1.1v-2.3
				c0-4.3-2.7-7.3-6.7-7.3c-3.9,0-6.6,2.9-6.6,7.3v32.9c0,4.3,2.7,7.3,6.6,7.3c4,0,6.7-2.9,6.7-7.3v-2.3c0-0.6,0.5-1.1,1.1-1.1
				l8.5,0.4c0.6,0,1.1,0.5,1.1,1.1v1.1c0,10.5-7,17.3-17.5,17.3c-10.4,0-17.3-6.8-17.3-17.3V49.2C217.9,38.7,224.8,32.1,235.1,32.1
				 M235.1,30.1c-11.5,0-19.3,7.7-19.3,19.2v31.3c0,11.5,7.7,19.3,19.3,19.3s19.5-7.7,19.5-19.3v-1.1c0-1.7-1.3-3.1-3-3.1L243,76
				l0,0l0,0c-1.7,0-3.1,1.4-3.1,3.1v2.3c0,3.2-1.8,5.3-4.7,5.3c-2.8,0-4.6-2-4.6-5.3V48.5c0-3.2,1.8-5.3,4.6-5.3
				c2.9,0,4.7,2,4.7,5.3v2.3c0,1.8,1.3,3.1,3.1,3.1l0,0l0,0l8.5-0.4c1.7,0,3-1.5,3-3.2v-1.1C254.6,37.8,246.8,30.1,235.1,30.1
				L235.1,30.1z"/>
		</g>
		<g>
			<path class="st3" d="M262.1,98.1c-1.2,0-2.1-0.9-2.1-2.1V33.9c0-1.2,0.9-2.1,2.1-2.1h29.8c1.2,0,2.1,0.9,2.1,2.1v7
				c0,1.2-0.9,2.1-2.1,2.1h-19.3v16.3h11.2c1.2,0,2.1,0.9,2.1,2.1v7.1c0,1.2-0.9,2.1-2.1,2.1h-11.2V87h19.3c1.2,0,2.1,0.9,2.1,2.1v7
				c0,1.2-0.9,2.1-2.1,2.1L262.1,98.1L262.1,98.1z"/>
			<path class="st0" d="M291.9,32.8c0.6,0,1.1,0.5,1.1,1.1v7c0,0.6-0.5,1.1-1.1,1.1h-19.8c-0.3,0-0.5,0.2-0.5,0.5v17.4
				c0,0.3,0.2,0.5,0.5,0.5h11.8c0.6,0,1.1,0.5,1.1,1.1v7.1c0,0.6-0.5,1.1-1.1,1.1h-11.8c-0.3,0-0.5,0.2-0.5,0.5v17.5
				c0,0.3,0.2,0.5,0.5,0.5h19.8c0.6,0,1.1,0.5,1.1,1.1v7c0,0.6-0.5,1.1-1.1,1.1h-29.8c-0.6,0-1.1-0.5-1.1-1.1V33.9
				c0-0.6,0.5-1.1,1.1-1.1L291.9,32.8 M291.9,30.8h-29.8c-1.7,0-3.1,1.4-3.1,3.1V96c0,1.7,1.4,3.1,3.1,3.1h29.8
				c1.7,0,3.1-1.4,3.1-3.1v-7c0-1.7-1.4-3.1-3.1-3.1h-18.3V71.5h10.2c1.7,0,3.1-1.4,3.1-3.1v-7.1c0-1.7-1.4-3.1-3.1-3.1h-10.2V44
				h18.3c1.7,0,3.1-1.4,3.1-3.1v-7C295,32.2,293.6,30.8,291.9,30.8L291.9,30.8z"/>
		</g>
	</g>
</g>
</svg>
