<svg xmlns="http://www.w3.org/2000/svg" xmlns:xlink="http://www.w3.org/1999/xlink" viewBox="0 0 468.12 77.4"><defs><style>.cls-1{fill:url(#Gradiente_sem_nome_8);}.cls-2{fill:#00b290;}.cls-3{fill:#007668;}</style><linearGradient id="Gradiente_sem_nome_8" x1="254.71" y1="44.75" x2="338.52" y2="44.75" gradientUnits="userSpaceOnUse"><stop offset="0" stop-color="#00b290"/><stop offset="1" stop-color="#007668"/></linearGradient></defs><title>Ativo 1</title><g id="Camada_2" data-name="Camada 2"><g id="Camada_1-2" data-name="Camada 1"><path class="cls-1" d="M287.94,65.83h-.16c-2,0-3.5-1-3.54-2.1L283.1,30.6l-7.35,16.92c-.45.92-1.92,1.56-3.56,1.56l-15,0h0c-1.35,0-2.46-.67-2.46-1.5s1.1-3.52,2.46-3.52l14.16,0,9.28-18.84c.51-1,2.24-1.69,4.09-1.53s3.12,1,3.16,2.08l.87,25.5,1-5.9c.18-1.11,1.76-1.94,3.68-1.95h3.45l.83-11.49c.08-1.14,1.62-2,3.58-2.06h.12c1.92,0,3.49.82,3.67,1.94l3.83,22.93,7.29-19.24c.38-1,1.88-1.73,3.75-1.68s3.24.78,3.51,1.82L325.59,44l10.46,0h0a2.93,2.93,0,0,1,2.46,2.51c0,.83-1.1,1.51-2.46,1.51l-11.48,0h0c-1.84,0-3.38-.76-3.65-1.82l-1.38-6.3L312,59.79c-.4,1.05-2,1.75-3.86,1.68s-3.26-.86-3.43-1.93l-2.88-17.21-.15,2.05c-.08,1.15-1.7,2.06-3.69,2.06h-3.53l-2.85,17.45C291.43,65,289.87,65.83,287.94,65.83Zm37.84-21.11Zm-53.59-.66Z"/><path class="cls-2" d="M0,57.44V19.33C0,7.52,7.73,0,19.33,0S38.76,7.52,38.76,19.33V21a1,1,0,0,1-1.08,1.08l-8.16.43a1,1,0,0,1-1.07-1.08V18.68c0-5.9-3.65-9.77-9.12-9.77s-9,3.87-9,9.77V58.19c0,5.8,3.54,9.77,9,9.77s9.12-4,9.12-9.77V55.4a1,1,0,0,1,1.07-1.08l8.16.43a1,1,0,0,1,1.08,1.08v1.61c0,11.81-7.73,19.43-19.43,19.43S0,69.25,0,57.44Z"/><path class="cls-2" d="M79.55,75.05,77.19,62.7c0-.22-.32-.43-.53-.43H59.37c-.21,0-.54.21-.54.43L56.36,75.05a1.07,1.07,0,0,1-1.18,1H47a.92.92,0,0,1-1-1.18l16-73a1.09,1.09,0,0,1,1.19-1h9.44a1.07,1.07,0,0,1,1.18,1l16.22,73a.93.93,0,0,1-1,1.18H80.74A1.09,1.09,0,0,1,79.55,75.05ZM61,54.11H75.15c.22,0,.32-.21.32-.43L68.39,17c-.11-.43-.32-.43-.43,0l-7.3,36.72C60.66,53.9,60.77,54.11,61,54.11Z"/><path class="cls-2" d="M128.51,75.15l-10-32.21c-.11-.32-.22-.32-.43-.32h-7.41a.46.46,0,0,0-.43.43V74.94A1,1,0,0,1,109.19,76H101A1,1,0,0,1,100,74.94V1.83A1,1,0,0,1,101,.75h19.21c11.06,0,18.47,8.7,18.47,21.37,0,9.12-4.08,16.1-10.52,18.89-.22.22-.32.32-.22.65L139,74.83c.22.75-.11,1.18-.86,1.18H129.8A1.4,1.4,0,0,1,128.51,75.15ZM110.26,10.09V34.14a.45.45,0,0,0,.43.43h7.94c5.8,0,9.77-4.83,9.77-12.35,0-7.73-4-12.56-9.77-12.56h-7.94A.46.46,0,0,0,110.26,10.09Z"/><path class="cls-2" d="M148.59,74.94v-73A1,1,0,0,1,149.66.86h17.61c11.81,0,19.43,7.84,19.43,20.29V55.72c0,12.45-7.62,20.29-19.43,20.29H149.66A1,1,0,0,1,148.59,74.94Zm10.73-7.84,7.84-.11c5.47,0,9-4.51,9.13-11.81V21.69c0-7.3-3.55-11.92-9.13-11.92h-7.84a.46.46,0,0,0-.43.43V66.67A.46.46,0,0,0,159.32,67.1Z"/><path class="cls-2" d="M198.94,74.94v-73A1,1,0,0,1,200,.86h8.16a1,1,0,0,1,1.07,1.07v73A1,1,0,0,1,208.17,76H200A1,1,0,0,1,198.94,74.94Z"/><path class="cls-2" d="M221.05,57.22V19.75C221.05,7.84,228.89,0,240.59,0s19.76,7.84,19.76,19.75V57.22c0,11.92-8,19.65-19.76,19.65S221.05,69.14,221.05,57.22Zm29,.43V19.22c0-6.12-3.76-10.31-9.45-10.31s-9.23,4.19-9.23,10.31V57.65c0,6.12,3.65,10.31,9.23,10.31S250,63.77,250,57.65Z"/><path class="cls-3" d="M360.66,76.44l-2.37-12.35c0-.21-.32-.43-.53-.43H340.47c-.21,0-.53.22-.53.43l-2.47,12.35a1.08,1.08,0,0,1-1.18,1h-8.16a.92.92,0,0,1-1-1.18l16-73a1.07,1.07,0,0,1,1.18-1h9.45a1.08,1.08,0,0,1,1.18,1l16.21,73a.93.93,0,0,1-1,1.18h-8.37A1.07,1.07,0,0,1,360.66,76.44ZM342.08,55.5h14.17c.22,0,.33-.21.33-.43l-7.09-36.72c-.11-.43-.32-.43-.43,0l-7.3,36.72C341.76,55.29,341.87,55.5,342.08,55.5Z"/><path class="cls-3" d="M419.7,23.72c0,12.67-7.19,21-17.93,21H391.68a.47.47,0,0,0-.43.43V76.33a1,1,0,0,1-1.07,1.07H382A1,1,0,0,1,381,76.33V3.22A1,1,0,0,1,382,2.14h19.22C412.3,2.14,419.7,10.84,419.7,23.72Zm-10.3.22c0-8-4-12.89-9.77-12.89h-7.95a.47.47,0,0,0-.43.43V36.07a.47.47,0,0,0,.43.43h7.95C405.42,36.5,409.4,31.77,409.4,23.94Z"/><path class="cls-3" d="M468.12,23.72c0,12.67-7.19,21-17.93,21H440.1a.47.47,0,0,0-.43.43V76.33a1,1,0,0,1-1.07,1.07h-8.16a1,1,0,0,1-1.07-1.07V3.22a1,1,0,0,1,1.07-1.08h19.22C460.71,2.14,468.12,10.84,468.12,23.72Zm-10.3.22c0-8-4-12.89-9.77-12.89H440.1a.47.47,0,0,0-.43.43V36.07a.47.47,0,0,0,.43.43h7.95C453.84,36.5,457.82,31.77,457.82,23.94Z"/></g></g></svg>